<svg width="200" height="64" viewBox="0 0 200 64" fill="none" xmlns="http://www.w3.org/2000/svg">
<path d="M35.7778 46.9333C35.7778 56.7467 41.7511 37.8311 42.8889 34.7022L52.2044 8.88889H52.4178L35.7778 62.2222H35.0667C35.0667 51.5556 34.9956 19.2 34.7111 10.6667C34.5689 6.4 34 0.355553 23.3333 0.355553V0H35.7778V46.9333ZM2 64V63.6444C5.55556 63.6444 8.89778 61.5822 12.5244 51.5556L29.6622 3.55555H30.0889L13.7333 51.6267C10.2489 61.7244 13.3778 63.6444 16.9333 63.6444V64H2ZM46.5867 0.355553V0H58.8889V48H58.5333C58.5333 37.3333 58.1067 19.2 57.8222 10.6667C57.68 6.4 57.8222 0.355553 46.5867 0.355553Z" fill="white"/>
<path d="M73.0903 0H94.4236V58.5956H94.1392C93.9969 54.4 93.4992 50.7022 93.0014 49.0667C91.7214 44.9422 88.0236 43.3778 73.0903 43.3778V42.6667H93.8547C93.8547 35.1289 93.9258 12.0889 93.3569 6.25778C92.5747 2.48889 89.4458 0.782219 80.2014 0.568886L73.0903 0.426666V0ZM55.3125 64V63.6444C58.8681 63.6444 62.2103 61.5822 65.8369 51.5556L83.6147 1.63556H84.0414L67.0458 51.6267C63.5614 61.7244 66.6903 63.6444 70.2458 63.6444V64H55.3125Z" fill="white"/>
<path d="M135.319 0V21.3333H134.964C134.964 17.7778 135.035 15.36 134.608 10.8089C133.684 2.13333 133.542 0.639999 120.031 0.213333L102.608 51.6267C99.195 61.7244 102.253 63.6444 112.208 63.6444V64H90.875V63.6444C94.4306 63.6444 97.8439 61.5822 101.399 51.5556L119.675 0H135.319ZM110.431 51.2711V51.0578L135.319 34.56V58.5956H135.035C135.035 49.7067 134.893 41.6 132.831 39.8222C130.057 37.4756 119.319 46.2933 110.431 51.2711Z" fill="white"/>
<path d="M157.485 8.74667C158.907 4.83556 160.685 0.924442 154.854 0.426666L153.93 0.355553V0H170.854V0.355553H169.076C161.894 0.355553 160.259 2.20444 159.192 5.40444L143.476 51.6267C140.063 61.7244 142.41 63.6444 147.743 63.6444V64H128.188V63.6444C134.872 63.6444 138.641 61.6533 142.268 51.5556L157.485 8.74667Z" fill="white"/>
<path d="M197.569 0V21.3333H197.214C197.214 17.7778 197.285 15.36 196.858 10.8089C195.934 2.13333 195.792 0.639999 182.281 0.213333L164.858 51.6267C161.445 61.7244 166.707 63.6444 176.663 63.6444H177.516C188.467 63.6444 188.823 62.72 192.378 52.9067L195.436 44.4444H195.792L189.463 64H153.125V63.6444C156.681 63.6444 160.094 61.5822 163.649 51.5556L181.925 0H197.569Z" fill="white"/>
</svg>
