<svg width="1168" height="438" viewBox="0 0 1168 438" fill="none" xmlns="http://www.w3.org/2000/svg">
<path d="M763.3 182.3C762.5 174.2 758.9 167.7 752.5 162.9C746.1 158.1 738.1 155.7 728.5 155.7C721.7 155.7 715.7 156.9 710.6 159.2C705.4 161.5 701.4 164.8 698.5 168.9C695.6 173 694.1 177.7 694.1 182.9C694.1 186.8 694.9 190.1 696.6 193C698.3 195.9 700.5 198.4 703.3 200.5C706.1 202.6 709.3 204.3 712.7 205.8C716.1 207.3 719.6 208.5 723.2 209.5L738.6 213.9C743.3 215.2 747.9 216.8 752.6 218.8C757.3 220.8 761.5 223.3 765.4 226.3C769.3 229.3 772.4 233 774.7 237.4C777.1 241.8 778.2 247 778.2 253.1C778.2 260.9 776.2 267.9 772.1 274.1C768 280.3 762.3 285.3 754.7 288.9C747.1 292.5 738.1 294.4 727.5 294.4C717.6 294.4 708.9 292.7 701.6 289.4C694.3 286.1 688.5 281.5 684.3 275.7C680.1 269.9 677.8 263.1 677.2 255.4H691C691.5 261.2 693.4 266 696.7 270C700 274 704.4 277 709.7 279.1C715 281.2 721 282.2 727.5 282.2C734.8 282.2 741.3 281 746.9 278.5C752.6 276.1 757.1 272.6 760.3 268.2C763.6 263.8 765.2 258.7 765.2 252.8C765.2 247.9 763.9 243.7 761.3 240.3C758.7 236.9 755.2 234.1 750.6 231.8C746 229.5 740.7 227.5 734.7 225.7L717.2 220.6C705.7 217.2 696.8 212.4 690.5 206.4C684.2 200.4 681 192.7 681 183.3C681 175.5 683.1 168.5 687.3 162.6C691.5 156.6 697.2 152 704.4 148.6C711.6 145.2 719.7 143.6 728.7 143.6C737.8 143.6 745.8 145.3 752.8 148.6C759.8 151.9 765.3 156.5 769.5 162.3C773.6 168.1 775.8 174.8 776.1 182.2H763.3V182.3Z" fill="white"/>
<path d="M804.1 291.899V145.699H888.6V157.699H817.4V212.699H882V224.699H817.4V291.799H804.1V291.899Z" fill="white"/>
<path d="M1008.5 145.7H1021.8V242.5C1021.8 252.4 1019.5 261.3 1014.8 269.1C1010.1 276.9 1003.7 283.1 995.4 287.6C987.1 292.1 977.5 294.3 966.5 294.3C955.6 294.3 945.9 292 937.6 287.5C929.3 283 922.8 276.8 918.1 269C913.4 261.2 911.1 252.3 911.1 242.4V145.6H924.4V241.4C924.4 249.2 926.1 256.1 929.6 262.1C933.1 268.2 938 272.9 944.3 276.4C950.6 279.9 958 281.6 966.5 281.6C975 281.6 982.4 279.9 988.7 276.4C995 272.9 999.9 268.2 1003.4 262.1C1006.8 256 1008.6 249.1 1008.6 241.4L1008.5 145.7Z" fill="white"/>
<path d="M186.8 183.201H146V145.801H272.6V183.201H231.7V291.801H186.8C186.8 291.701 186.8 183.201 186.8 183.201Z" fill="#EB0028"/>
<path d="M279.5 145.801H402.4V183.201H324.4V201.401H402.4V236.201H324.4V254.401H402.4V291.801H279.5V145.801Z" fill="#EB0028"/>
<path d="M410 145.801H483.7C532.3 145.801 549.5 181.801 549.5 218.601C549.5 263.401 525.8 291.801 475 291.801H410V145.801ZM454.9 254.301H472.5C500.5 254.301 504.6 231.601 504.6 217.901C504.6 208.701 501.7 183.201 469.3 183.201H455V254.301H454.9Z" fill="#EB0028"/>
<path d="M614 235.801L600.3 213.001L586.9 235.801H554L585.2 189.801L555.1 145.801H588L600.2 167.601L612.7 145.801H645.6L615.5 189.801L646.7 235.801H614Z" fill="#EB0028"/>
</svg>
