<svg width="104" height="64" viewBox="0 0 104 64" fill="none" xmlns="http://www.w3.org/2000/svg">
<g clip-path="url(#clip0_1580_4126)">
<path d="M0 63.6444C3.55556 63.6444 6.89778 61.5822 10.5244 51.5556L28.3022 1.63556H28.7289L11.7333 51.6267C8.24889 61.7244 11.3778 63.6444 14.9333 63.6444V64H0V63.6444ZM0 17.7778V0H54.1156L36.6222 51.6267C33.2089 61.7244 36.2667 63.6444 39.8222 63.6444V64H24.8889V63.6444C28.4444 63.6444 31.7867 61.6533 35.4133 51.5556L48.8533 13.7956C50.4178 9.24444 52.4089 0.568886 47.0756 0.497776L22.9689 0.426666L15.6444 0.639999C7.68 0.853333 5.26222 0.639999 2.84444 3.55555C0.284445 6.68444 0.213333 15.7867 0.213333 17.7778H0ZM72.8889 0.213333V0H103.111V17.7778H102.898C102.898 15.7867 102.756 8.32 100.196 5.26222C97.7778 2.27555 95.36 0.853333 87.3956 0.639999L72.8889 0.213333Z" fill="white"/>
<path d="M76.3733 21.3333L83.4133 1.63556H83.84L77.1556 21.3333H76.3733Z" fill="white"/>
<path d="M77.0133 21.8311L66.8444 51.6267C63.36 61.7244 66.4889 63.6444 70.0444 63.6444H81.28C92.2311 63.6444 92.5867 62.72 96.1422 52.9067L99.2 44.4444H99.5556L93.2267 64H55.1111V63.6444C58.6667 63.6444 62.0089 61.5822 65.6356 51.5556L76.2311 21.8311H77.0133Z" fill="white"/>
<path d="M49.4223 21.3335L49.209 21.8313H77.0134H77.5112C86.2579 21.8313 87.2534 22.1157 89.1734 25.3868C90.0891 27.0068 90.2373 28.836 90.4473 31.4273L90.4534 31.5024H90.6668V21.3335H77.1557H49.4223Z" fill="white"/>
</g>
<defs>
<clipPath id="clip0_1580_4126">
<rect width="104" height="64" fill="white"/>
</clipPath>
</defs>
</svg>
