<svg width="268" height="64" viewBox="0 0 268 64" fill="none" xmlns="http://www.w3.org/2000/svg">
<path d="M52.2 10.0267C51.9867 5.90222 50.4933 0.711109 45.4444 0.497776L41.8889 0.355553V0H52.5556V39.1822L26.7422 64H1V63.6444C4.55556 63.6444 7.89778 61.6533 11.5244 51.5556L26.7422 8.74667C28.3778 4.19555 28.52 0.711109 24.9644 0.497776L22.3333 0.355553V0H30.2267L12.7333 51.6267C9.32 61.7244 12.3778 62.2222 15.9333 62.2222H18.7778C24.9644 62.2222 27.4533 62.3644 40.9644 49.6356C51.2044 39.8933 51.9867 31.5733 51.9867 26.24L52.2 10.0267Z" fill="white"/>
<path d="M75.3042 0L96.9931 35.5556V58.7378H96.6375C96.6375 45.2978 96.1397 42.9511 93.7931 36.48C91.1619 29.2267 81.2064 11.8044 78.2908 7.75111C75.6597 4.05333 74.3086 0.355553 62.7886 0.355553V0H75.3042ZM45.4375 64V63.6444C48.9931 63.6444 52.3353 61.5822 55.9619 51.5556L72.8864 4.05333H73.3131L57.1708 51.6267C53.6864 61.7244 56.8153 63.6444 60.3708 63.6444V64H45.4375ZM84.5486 0.355553V0H96.9931V30.2222H96.6375C96.6375 26.5956 96.4953 9.6 95.9264 5.33333C95.6419 3.2 96.0686 0.355553 84.5486 0.355553Z" fill="white"/>
<path d="M127.215 46.9333C127.215 56.7467 133.189 37.8311 134.326 34.7022L143.642 8.88889H143.855L127.215 62.2222H126.504C126.504 51.5556 126.433 19.2 126.149 10.6667C126.006 6.4 125.438 0.355553 114.771 0.355553V0H127.215V46.9333ZM93.4375 64V63.6444C96.9931 63.6444 100.335 61.5822 103.962 51.5556L121.1 3.55555H121.526L105.171 51.6267C101.686 61.7244 104.815 63.6444 108.371 63.6444V64H93.4375ZM138.024 0.355553V0H150.326V48H149.971C149.971 37.3333 149.544 19.2 149.26 10.6667C149.117 6.4 149.26 0.355553 138.024 0.355553Z" fill="white"/>
<path d="M164.528 0H185.861V58.5956H185.577C185.434 54.4 184.937 50.7022 184.439 49.0667C183.159 44.9422 179.461 43.3778 164.528 43.3778V42.6667H185.292C185.292 35.1289 185.363 12.0889 184.794 6.25778C184.012 2.48889 180.883 0.782219 171.639 0.568886L164.528 0.426666V0ZM146.75 64V63.6444C150.306 63.6444 153.648 61.5822 157.274 51.5556L175.052 1.63556H175.479L158.483 51.6267C154.999 61.7244 158.128 63.6444 161.683 63.6444V64H146.75Z" fill="white"/>
<path d="M221.424 0V10.6667H220.997C220.997 7.75111 220.784 7.11111 219.93 5.33333C218.508 2.34666 215.521 0.711109 209.548 0.568886L204.072 0.426666C202.935 3.05778 200.801 9.81333 200.588 10.3111L221.353 31.9289L221.424 56.8889H220.855C220.855 42.6667 219.93 30.4356 199.877 10.3111L203.646 0H221.424ZM182.312 64V63.6444C185.868 63.6444 189.21 61.5111 192.837 51.5556L203.788 21.3333H204.215L194.046 51.6267C190.633 61.7956 193.69 63.6444 202.579 63.6444V64H182.312Z" fill="white"/>
<path d="M242.764 24.5333L262.319 0H267.653C259.262 6.89778 246.319 20.5511 243.617 24.5333H267.653V64H267.297V53.6889C267.297 46.5778 267.226 43.2356 266.515 34.7022C266.159 30.4356 265.591 24.8889 254.924 24.8889H242.764V24.5333ZM217.875 64V63.6444C221.431 63.6444 224.773 61.6533 228.399 51.5556L243.617 8.74667C245.039 4.83556 245.679 0.355553 243.119 0.355553H242.764V0H247.102L229.608 51.6267C226.195 61.7244 229.253 63.6444 232.808 63.6444V64H217.875Z" fill="white"/>
</svg>
