<svg width="512" height="512" viewBox="0 0 512 512" fill="none" xmlns="http://www.w3.org/2000/svg">
<g clip-path="url(#clip0_206_21)">
<path d="M49.5 476.5C36.3 482.5 17.6667 493 10 497.5L5.5 525.5L559 590.5L535.5 479H501.5L478.5 476L438 467.5L398.5 456L390 452L386 445.5L382 442C374 436.8 363.667 433.833 359.5 433L356 431L347.5 424.5L345 421C344 417.167 341.8 408.9 341 406.5C340 403.5 338.5 403 335.5 398.5C333.1 394.9 330.833 389.333 330 387L328.5 385.5L332 355.5L335 344.5L347 329.5C353.4 321.5 357.333 314.833 358.5 312.5L361.5 313.5L363.5 311.5L374.5 285.5L375 274.5C375.833 273.167 377.8 269.2 379 264C380.2 258.8 378.833 253.5 378 251.5L375.5 248.5L376 232.5L380 231.5C380.667 230.167 382.5 226.7 384.5 223.5C386.5 220.3 390.333 213.167 392 210C394.667 207.167 400.9 198.7 404.5 187.5C408.1 176.3 407 163.167 406 158C406.833 154.833 408.6 147.3 409 142.5C409.4 137.7 406.5 126.167 405 121L408 128C409.6 129.6 411.333 139.333 412 144C412.333 141.833 412.6 136.1 411 130.5C409 123.5 404 108.5 390 99C378.8 91.4 355.667 91.1667 345.5 92C345.167 92 345.6 90.3 350 83.5C354.4 76.7 354.833 67.3333 354.5 63.5C354.333 61.5 352.5 55.8 346.5 49C340.5 42.2 333.333 44.1667 330.5 46C331 46 333 46.2 337 47C342 48 341 49.5 343.5 50.5C345.5 51.3 349.333 59.8333 351 64C351 65.6667 350.7 70.2 349.5 75C348.3 79.8 343.667 88.3333 341.5 92L339.5 93L338 91C339.167 84.8333 341.3 71.4 340.5 67C339.7 62.6 335.833 59.5 334 58.5C332.333 57.8333 328.5 56.5 326.5 56.5C324.5 56.5 322.333 57.5 321.5 58H321C318 50 298 38.4998 288 37.9998C280 37.5998 264 43.4998 257 46.4998C256 46.8332 253.8 47.5998 253 47.9998C248.2 49.5998 240.333 56.9998 237 60.4998C236.667 60.4998 235.2 60.5998 232 60.9998C228 61.4998 215 71.4998 211 77.4998C207.8 82.2998 207.333 84.1665 207.5 84.4998C207.333 84.4998 206.9 84.3998 206.5 83.9998C206 83.4998 193 90.4998 184.5 96.4998C177.7 101.3 167 110.833 162.5 115L159 120.5L155 129.5L153 136.5L152.5 139.5C150.167 145 145.1 157.5 143.5 163.5C141.9 169.5 139.5 179.333 138.5 183.5L139 187L140.5 194.5V199V213.5L140 216.5L140.5 220.5L142 221V222.5L138 237.5L138.5 244.5L144 256L152.5 272C154.167 274.166 158.5 278.7 162.5 279.5C166.5 280.3 171.167 279.166 173 278.5L174.5 291.5L177.5 309.5L178 328.5L177.5 360.5L176 380.5C171 384.833 160.7 394.4 159.5 398C158 402.5 159.5 404.5 158 410C156.8 414.4 155.5 417.5 155 418.5L149.5 423L144 425.5C138.167 429 125.2 436.9 120 440.5C113.5 445 113.5 447.5 105 453C96.5 458.5 66 469 49.5 476.5Z" fill="white"/>
</g>
<defs>
<clipPath id="clip0_206_21">
<rect width="512" height="512" fill="white"/>
</clipPath>
</defs>
</svg>
