<svg width="512" height="512" viewBox="0 0 512 512" fill="none" xmlns="http://www.w3.org/2000/svg">
<g clip-path="url(#clip0_206_23)">
<path d="M71.5 456C67.1 462.8 49.6667 495.833 41.5 511.5L32 532L540.5 550L514.5 480.5C506.667 470.5 487.4 446.9 473 432.5C458.6 418.1 432.333 398.5 421 390.5L421.5 389L423 388.5C422 384 418 378.5 415.5 368C413 357.5 409.5 349 407.5 345.5L405.5 343.5H399.5C398.167 343.333 393.6 342.9 386 342.5C378.4 342.1 366.167 337.666 361 335.5L350 331C347.5 326.5 341.9 316.1 339.5 310.5C337.1 304.9 331.833 276.833 329.5 263.5L327.5 249.5L326 238C325.833 237.666 326.2 237.3 329 238.5C332.5 240 334.5 237 337 234C339.5 231 343.5 215 345 207.5C346.5 200 346.5 188.5 345 181C343.5 173.5 340 166.5 338 165C336.4 163.8 333.333 162.833 332 162.5H329.5L327.5 154L322.5 137L324.5 135.5V129.5L319 111L317.5 108L310.5 94.9997C307.835 89.8958 307.332 87.057 306.5 81.9997C299.437 70.2109 296.442 65.8844 299.5 73.4705C293.678 68.2436 284.084 62.5206 269.5 57.5C239 47 199.5 43.9997 181 47.9997C166.446 51.1464 149.536 55.8447 132 69.4997C132.765 69.2028 140 65.4997 139 66.4997C136.192 69.0041 120.857 79.4559 118 82.4997C99.6 102.1 89.3333 130 86.5 141.5L85.5 164L88 184C88.3333 186.333 89.9 194.5 93.5 208.5C97.1 222.5 105.667 234.333 109.5 238.5C109.167 237.5 108.1 234.4 106.5 230C104.9 225.6 103.167 218.833 102.5 216C104.333 220.166 108.6 229.6 111 234C113.4 238.4 119 242.833 121.5 244.5C126.333 258.5 137.3 289 142.5 299C147.7 309 153.333 316.833 155.5 319.5C169 335.5 190.833 346.833 203.5 352L208 368.5L203.5 370.5L198.5 377C197.167 378 193.5 380.5 189.5 382.5C184.5 385 165 392 150 394.5C138 396.5 121.333 403 114.5 406C110.833 407.833 102 413.3 96 420.5C88.5 429.5 77 447.5 71.5 456Z" fill="white"/>
</g>
<defs>
<clipPath id="clip0_206_23">
<rect width="512" height="512" fill="white"/>
</clipPath>
</defs>
</svg>
