<svg width="512" height="512" viewBox="0 0 512 512" fill="none" xmlns="http://www.w3.org/2000/svg">
<g clip-path="url(#clip0_206_11)">
<path d="M39.5 464.5L9 493L11.5 545H520C517.667 514 512.7 449.7 511.5 440.5C510 429 496.5 414.5 485.5 411C477 405.5 411.5 393.5 398.5 388C388.1 383.6 369.167 371.5 361 366C360 363.833 356.8 358.3 352 353.5C347.2 348.7 335.333 330.167 330 321.5L314.5 317.5L312.5 303.5C313.167 303.167 316.3 298.5 323.5 282.5C330.7 266.5 329.167 241.833 327.5 231.5C328 232.333 329.4 234.3 331 235.5C333 237 335 235 336.5 232.5C338 230 331.5 211.5 331 208C330.5 204.5 332.5 206.5 332.5 199C332.5 193 330.833 187.833 330 186C329.833 179.5 329.4 165.6 329 162C328.6 158.4 325.5 158.5 324 159L322.5 130.5C317.589 107.328 312.717 93.8749 300 69C270.147 34.5793 241.5 18 216.5 18C212.833 18.3333 204.2 19.3 199 20.5C148.6 26.5 122 59.3333 115 75L113.5 90L104.5 92.5L97.5 98.5L90 115.5L87.5 132L89 165L92 178.5L105 209L102.5 213.5V224.5C108.333 236.333 121.3 262.8 126.5 274C131.7 285.2 138.667 284.667 141.5 283L149.5 279.5L161 301.5L167 309L172 332L169.5 334.5L166 344L161 358.5L152.5 375.5L151.5 384.5L135 400L124 418.5L97 439.5L83.5 447L39.5 464.5Z" fill="white"/>
</g>
<defs>
<clipPath id="clip0_206_11">
<rect width="512" height="512" fill="white"/>
</clipPath>
</defs>
</svg>
