<svg width="512" height="512" viewBox="0 0 512 512" fill="none" xmlns="http://www.w3.org/2000/svg">
<g clip-path="url(#clip0_206_13)">
<path d="M46.5 482L35.5 510L28 526L496 522.5L488 428.5C486.4 409.7 474.333 403 468.5 402L421 376C416.5 353.5 419.823 338.437 411.5 297.5C404.612 263.623 391.197 245.5 389 197C384 173.5 375.401 136.263 371 121.5C347.154 41.5174 320.347 31.1315 280.77 15.7981L280 15.4998L261.5 14L253 15.4998L246.5 18.9998C247.5 17.6665 245.7 15.0998 230.5 15.4998C215.3 15.8998 190.833 34.6665 180.5 43.9998L165 62.4998L154.5 82.4998L146.5 105L142.5 125.5L139.5 141.5L135 158.5L133 193.5L130 222L124.5 244L121.5 254.5L112 289L94.5 401L70 422.5L60.5 438L46.5 482Z" fill="white"/>
</g>
<defs>
<clipPath id="clip0_206_13">
<rect width="512" height="512" fill="white"/>
</clipPath>
</defs>
</svg>
