<svg width="512" height="512" viewBox="0 0 512 512" fill="none" xmlns="http://www.w3.org/2000/svg">
<path d="M356.5 341C364.865 339.198 382.742 354.165 396 364.5C410 374 432.043 387.228 439 396C470.24 435.39 469.092 444.852 468.596 512H20.8901C21.2517 500.375 22.3252 488.501 24.4999 477.5C32.6827 421.181 65.8898 389.887 91.9996 386.739C106.5 374.5 118 366.889 131.5 366.889C143.416 363.267 154.889 355.373 165.948 345C168.395 335.5 192 311.5 195.5 311.393L200 279C195.666 270.167 187.4 248 189 230C181 230.5 174 218 176.5 199.5C179 181 169.5 175 175 162.5C172 136.5 183.5 66 247 42C256 19.5 323.5 -0.500008 328 53C341 33.5 388 8.99998 416 67.5C428 95 434.5 173 416 216C411 220 406 225.5 403 227V224L398 230.5L397.5 226C393.666 228.833 385.1 234.5 381.5 234.5C382.7 232.5 383 231 383 230.5C380.166 231.667 374.2 233.9 373 233.5C370 239.5 365.61 244.439 363.007 250.5C357.513 263.29 353.998 275.839 344.5 275.5C336.9 288.3 330.488 294.167 328.233 295.5C321 299.776 320.5 313 319 321.5C321.095 325.924 324.5 334 328.233 340C331.303 340.395 334 342.5 338.5 345.5C344.5 344 353.6 341.624 356.5 341Z" fill="white"/>
</svg>
