<svg width="512" height="512" viewBox="0 0 512 512" fill="none" xmlns="http://www.w3.org/2000/svg">
<g clip-path="url(#clip0_206_15)">
<path d="M28.5 477.5L18.5 487L2.93766 511.316L13 545L529.5 608L526 455L437.5 406L386.5 388.5C364.5 363.5 360 357 340 341.5C329.5 338 328.334 337.909 319.5 332L311.5 289C311.349 276.24 311.316 268.605 311.5 253.5C314.498 250.631 315.747 248.369 317 243C320.867 222.193 322.753 210.366 321.5 186.5C320.5 178.671 318.838 175.234 312.5 172C313 149.5 309.5 92.8433 297 71.0002C287 59.5 259.686 52.1554 231 44C196.75 34.2627 162.251 26.3147 153 27.0002C126 29.0002 99.3843 35.064 86.5 63.0002C87.4189 52.0058 90.2682 46.6027 99 38.0002C83.9497 51.7361 85.3306 51.6577 78 65.5002C72.4677 71.7717 70.787 75.6887 69 83.0002C65.5 104 69.1088 109.047 77.5 120C85.5 126 92 127.5 100.5 127C90.8325 148.267 86.7078 162.689 93 206C98.2063 217.698 100.469 225.407 101.114 238V260C100.54 265.975 102.729 280.335 114 299.5C126.54 320.825 153.333 351.333 167 363L157 373L145 380L127 393.5L100.5 415L91.5 433L87.5 437L59 452.5L37 466.5L28.5 477.5Z" fill="white"/>
</g>
<defs>
<clipPath id="clip0_206_15">
<rect width="512" height="512" fill="white"/>
</clipPath>
</defs>
</svg>
