<svg width="512" height="512" viewBox="0 0 512 512" fill="none" xmlns="http://www.w3.org/2000/svg">
<g clip-path="url(#clip0_206_19)">
<path d="M10.5 496.5L9.5 511V523L495.5 520.5C494.333 497 491.3 448.7 488.5 443.5C485.7 438.3 475.667 432.667 471 430.5L398.5 400L366 385C363.5 380.667 358 369.8 356 361C354 352.2 354.5 339.333 355 334C358.167 326.5 364.5 309.4 364.5 301C364.5 290.5 363 288 362.5 277.5C362.1 269.1 364.333 264.667 365.5 263.5L378.5 225L379 206V183.5C380.5 179.333 383.6 169.8 384 165C384.4 160.2 382.167 153 381 150C378.333 139.333 371.4 113.6 365 96C357 74 336 53.5 322 45.5C308 37.5 273.5 28.4995 257 26.9995C243.8 25.7995 231.833 33.4995 227.5 37.4995H224.5C223.333 37.6662 220.6 38.1995 219 38.9995C217.4 39.7995 216.667 42.9995 216.5 44.4995L215.5 50.4997L210 47.9997C209.167 47.6664 206.3 47.6997 201.5 50.4997C195.5 53.9997 178 65.4997 165.5 84.9997C153 104.5 144 135.5 144.5 148C144.9 158 146 159.833 146.5 159.5L149 166.5L147 177.5L148 183L149 192L151 203L156.5 211C156.167 216.5 155.6 229.2 156 236C156.4 242.8 157.833 249.5 158.5 252C158.833 254.833 161.6 264.2 170 279C178.4 293.8 188.833 307.833 193 313L194 332.5L193 338.5C192 339.333 189.1 342 185.5 346C181 351 183 351 176.5 358.5C171.3 364.5 161 372.666 156.5 376L147.5 384.5L111 393.5C107.333 393.833 96.8 395.4 84 399C71.2 402.6 47 412.833 36.5 417.5C35 417 30.4 419.1 24 431.5C17.6 443.9 15 456.333 14.5 461L13 488L10.5 496.5Z" fill="white"/>
</g>
<defs>
<clipPath id="clip0_206_19">
<rect width="512" height="512" fill="white"/>
</clipPath>
</defs>
</svg>
