<svg width="512" height="512" viewBox="0 0 512 512" fill="none" xmlns="http://www.w3.org/2000/svg">
<g clip-path="url(#clip0_206_17)">
<path d="M4.5 369.5L-20.5 391H-43L-85.5 554L505 582L487 458L475.5 441.5L471 429.5L462 406.5L451.5 386L446 379L438 371L426.5 362.5L403.5 349.5L377.5 337L375 333.5L367.5 329L362 325L358.5 323L352.5 317.5L341 307L330 296.5L326.5 294L324 290L317.5 282.5L313 275.5L310.5 272.5L316.5 265.5L324 252L327 245L325.5 253.5L318 267L316.5 270L324 264.5L331 254.5L334.5 244.5L336.5 230.5L337 218L340.5 222L349 230.5L357.5 235L368.5 236.5L358.5 233L350.5 226.5L343.5 217.5L336.5 203L330 182L327.5 162C327.333 151.5 325.9 126.5 321.5 110.5C317.1 94.5 303 82.1667 296.5 78C292 70.8334 278.4 55.3003 260 50.5003C241.6 45.7003 221 49.5003 213 52.0003L204.5 56.5003C201.667 57.0003 193.7 59.1003 184.5 63.5003C175.3 67.9003 172 73.0003 171.5 75.0003V81.5003L168.5 78.5003L165.5 80.0003C162.833 84.5003 155.9 97.2003 149.5 112C143.1 126.8 140.167 150.5 139.5 160.5L140 176.5L135.5 182L133.5 189.5L133 204.5L135.5 230L140 237L143 245L146 245.5L150 244L154 239.5L155.5 255L154 255.5H147.5L143.5 257.5L134.5 263.5L123.5 273L113 292L104.5 300.5L94.5 305L85.5 314L71.5 327L67 336.5L4.5 369.5Z" fill="white"/>
</g>
<defs>
<clipPath id="clip0_206_17">
<rect width="512" height="512" fill="white"/>
</clipPath>
</defs>
</svg>
