<svg xmlns="http://www.w3.org/2000/svg" width="876" height="152" viewBox="0 0 876 152" fill="none">
  <path fill="#000" d="M617.299 39.3001c-.8-8.1-4.4-14.6-10.8-19.4-6.4-4.8-14.4-7.2-24-7.2-6.8 0-12.8 1.2-17.9 3.5-5.2 2.3-9.2 5.6-12.1 9.7-2.9 4.1-4.4 8.8-4.4 14 0 3.9.8 7.2 2.5 10.1 1.7 2.9 3.9 5.4 6.7 7.5 2.8 2.1 6 3.8 9.4 5.3 3.4 1.5 6.9 2.7 10.5 3.7l15.4 4.4c4.7 1.3 9.3 2.9 14 4.9 4.7 2 8.9 4.5 12.8 7.5 3.9 3 7 6.7 9.3 11.1 2.4 4.4 3.5 9.5999 3.5 15.6999 0 7.8-2 14.8-6.1 21-4.1 6.2-9.8 11.2-17.4 14.8-7.6 3.6-16.6 5.5-27.2 5.5-9.9 0-18.6-1.7-25.9-5-7.3-3.3-13.1-7.9-17.3-13.7-4.2-5.8-6.5-12.6-7.1-20.3h13.8c.5 5.8 2.4 10.6 5.7 14.6 3.3 4 7.7 7 13 9.1 5.3 2.1 11.3 3.1 17.8 3.1 7.3 0 13.8-1.2 19.4-3.7 5.7-2.4 10.2-5.9 13.4-10.3 3.3-4.4 4.9-9.5 4.9-15.4 0-4.9-1.3-9.1-3.9-12.4999-2.6-3.4-6.1-6.2-10.7-8.5s-9.9-4.3-15.9-6.1l-17.5-5.1c-11.5-3.4-20.4-8.2-26.7-14.2-6.3-6-9.5-13.7-9.5-23.1 0-7.8 2.1-14.8 6.3-20.7 4.2-6 9.9-10.6 17.1-14 7.2-3.4 15.3-5.000002 24.3-5.000002 9.1 0 17.1 1.700002 24.1 5.000002 7 3.3 12.5 7.9 16.7 13.7 4.1 5.8 6.3 12.5 6.6 19.9h-12.8v.1ZM658.1 148.9V2.7002h84.5v12h-71.2v55H736v12h-64.6V148.8h-13.3v.1ZM862.5 2.70009h13.3V99.5001c0 9.8999-2.3 18.7999-7 26.5999-4.7 7.8-11.1 14-19.4 18.5-8.3 4.5-17.9 6.7-28.9 6.7-10.9 0-20.6-2.3-28.9-6.8-8.3-4.5-14.8-10.7-19.5-18.5-4.7-7.8-7-16.7-7-26.5999v-96.8h13.3v95.8c0 7.7999 1.7 14.6999 5.2 20.6999 3.5 6.1 8.4 10.8 14.7 14.3 6.3 3.5 13.7 5.2 22.2 5.2s15.9-1.7 22.2-5.2c6.3-3.5 11.2-8.2 14.7-14.3 3.4-6.1 5.2-13 5.2-20.6999l-.1-95.70001Z"/>
  <path fill="#EB0028" d="M40.8 40.1998H0v-37.4h126.6v37.4H85.7V148.8H40.8V40.1998Zm92.7-37.4h122.9v37.4h-78v18.2h78v34.8h-78V111.4h78v37.4H133.5V2.7998Zm130.5 0h73.7c48.6 0 65.8 36 65.8 72.8C403.5 120.4 379.8 148.8 329 148.8h-65V2.7998ZM308.9 111.3h17.6c28 0 32.1-22.7002 32.1-36.4002 0-9.2-2.9-34.7-35.3-34.7H309V111.3h-.1ZM468 92.7998l-13.7-22.8-13.4 22.8H408l31.2-46-30.1-44H442l12.2 21.8 12.5-21.8h32.9l-30.1 44 31.2 46H468Z"/>
</svg>